<?xml version="1.0" standalone="no"?>
<!DOCTYPE svg PUBLIC "-//W3C//DTD SVG 20010904//EN"
 "http://www.w3.org/TR/2001/REC-SVG-20010904/DTD/svg10.dtd">
<svg version="1.0" xmlns="http://www.w3.org/2000/svg"
 width="612.000000pt" height="612.000000pt" viewBox="0 0 612.000000 612.000000"
 preserveAspectRatio="xMidYMid meet">

<g transform="translate(0.000000,612.000000) scale(0.100000,-0.100000)"
fill="#000000" stroke="none">
<path d="M2855 6114 c-632 -48 -1207 -272 -1705 -664 -129 -102 -369 -342
-474 -473 -363 -456 -577 -966 -657 -1567 -17 -125 -17 -575 0 -700 80 -599
290 -1101 651 -1560 102 -129 342 -369 473 -474 350 -279 746 -475 1167 -581
290 -72 435 -89 755 -89 220 0 284 4 415 23 562 84 1060 299 1497 647 131 105
371 345 473 474 361 459 571 961 651 1560 17 125 17 575 0 700 -80 601 -294
1111 -657 1567 -105 131 -345 371 -474 473 -451 355 -953 567 -1525 646 -105
14 -486 26 -590 18z m450 -284 c663 -62 1260 -342 1725 -809 212 -213 369
-429 503 -691 195 -383 289 -749 304 -1180 23 -694 -202 -1345 -649 -1880
-448 -535 -1066 -871 -1788 -971 -126 -18 -554 -18 -680 0 -722 100 -1340 436
-1788 971 -554 663 -767 1518 -591 2371 83 406 287 833 555 1169 96 120 300
322 424 420 429 341 942 548 1480 599 126 12 380 12 505 1z"/>
<path d="M2943 5576 c-176 -43 -314 -187 -369 -386 -25 -90 -26 -328 -1 -419
28 -104 74 -187 142 -260 109 -116 221 -158 395 -148 150 9 243 49 332 144 52
57 79 104 102 182 28 94 30 91 -84 91 l-100 0 -6 -27 c-32 -153 -132 -237
-279 -237 -202 0 -329 174 -330 454 0 130 13 196 58 288 122 253 470 236 538
-25 l11 -43 101 0 100 0 -7 47 c-15 110 -117 248 -220 298 -110 53 -264 70
-383 41z"/>
<path d="M3775 3881 l-1059 -218 -72 -79 c-206 -228 -1383 -1558 -1381 -1561
5 -4 2131 432 2144 440 9 6 1325 1484 1441 1620 13 14 13 17 1 16 -8 -1 -491
-99 -1074 -218z m-701 -834 c116 -200 181 -320 173 -322 -7 -3 -320 -88 -697
-190 -377 -102 -694 -189 -705 -192 -11 -3 214 231 499 521 417 423 522 524
532 514 6 -7 95 -156 198 -331z"/>
<path d="M2921 1814 c-170 -46 -297 -177 -357 -369 -15 -49 -19 -91 -19 -230
0 -160 2 -175 28 -250 84 -239 255 -365 496 -365 183 1 345 88 418 227 28 53
38 82 57 166 l6 27 -105 0 c-98 0 -105 -1 -105 -20 0 -10 -9 -44 -20 -74 -23
-60 -87 -128 -145 -152 -52 -22 -180 -18 -235 7 -133 60 -210 219 -210 434 0
270 114 442 305 462 136 14 258 -68 290 -195 l12 -47 102 -3 102 -3 -7 38
c-33 178 -150 301 -331 348 -72 19 -211 18 -282 -1z"/>
</g>
</svg>
